<svg id="Layer_1" data-name="Layer 1" xmlns="http://www.w3.org/2000/svg" viewBox="0 0 350.83 510.25"><defs><style>.cls-1{fill:#28a699;}.cls-2{fill:none;stroke:#fff;stroke-miterlimit:10;stroke-width:8px;}</style></defs><title>Harvey_House_Pin</title><path class="cls-1" d="M500.12,755.12C457.23,686,416.7,621,376.55,555.81c-19-30.79-41.77-59.61-48.33-96.77-12.26-69.47,6-129.17,61.21-173.42,56.45-45.26,120.8-53.2,186.31-21.91,63.58,30.38,96.87,82.9,99.51,154.13,1.1,29.78-3.35,58.72-18.69,84C605.95,585.36,554,668.07,500.12,755.12Z" transform="translate(-324.58 -244.88)"/><path class="cls-2" d="M415,547.41a6.49,6.49,0,0,1-3.49-2.55,6.72,6.72,0,0,1-.74-3.63q0-52.85,0-105.71c0-1.92,0-3.85,0-5.77a1.3,1.3,0,0,1,.49-1.1q18.1-16,36.18-32l30.21-26.75q11-9.75,22-19.5c.55-.49.78-.16,1.11.13l12.88,11.39,26.94,23.84,29,25.69q9.64,8.53,19.29,17a1.61,1.61,0,0,1,.61,1.35q0,55.79,0,111.58a5.7,5.7,0,0,1-4.25,6H528.35a2.61,2.61,0,0,1-.31-1.82q0-23.41,0-46.83a6.89,6.89,0,0,0-.42-2.73,4.75,4.75,0,0,0-3.47-3,9.57,9.57,0,0,0-2.17-.23H478.24a9.48,9.48,0,0,0-1.88.17,5,5,0,0,0-4.16,4.78c0,.46,0,.93,0,1.39q0,23.21,0,46.43a2.61,2.61,0,0,1-.31,1.82Z" transform="translate(-324.58 -244.88)"/><path class="cls-2" d="M372.8,418.91,391,402.85l28.59-25.28L453,348l39.31-34.76c2.26-2,4.51-4,6.77-6,.25-.22.59-.18.9-.22,2-.24,2.58,1.48,3.62,2.39,11.5,10.05,22.91,20.2,34.35,30.32L566.42,365l33.43,29.57q13.47,11.92,26.95,23.84c.5.44.55.67.08,1.2q-6.1,6.81-12.13,13.69c-.48.55-.76.67-1.37.13q-12.47-11.1-25-22.16l-33.72-29.84L526,356q-12.69-11.23-25.38-22.46c-.41-.37-.62-.37-1,0q-14,12.44-28,24.85l-32,28.31L411.2,411.82Q399,422.66,386.73,433.51c-.57.51-.8.23-1.15-.17q-6.09-6.89-12.2-13.76A5.39,5.39,0,0,1,372.8,418.91Z" transform="translate(-324.58 -244.88)"/><path class="cls-2" d="M410.75,370.63v-1q0-22.87,0-45.75c0-.85.17-1.08,1.06-1.07q15,.06,30,0c.79,0,1.05.13,1,1-.12,5.8-.18,11.6-.23,17.4a1.36,1.36,0,0,1-.5,1.1l-23.4,21.1Z" transform="translate(-324.58 -244.88)"/></svg>