<svg id="Layer_1" data-name="Layer 1" xmlns="http://www.w3.org/2000/svg" viewBox="0 0 350.83 510.25"><defs><style>.cls-1{fill:#fbd736;}.cls-2{fill:#fff;}.cls-3{fill:#fefefe;}</style></defs><title>Harvey_Camera_Pin</title><path class="cls-1" d="M500.12,722.12C457.23,653,416.7,588,376.55,522.81c-19-30.79-41.77-59.61-48.33-96.77-12.26-69.47,6-129.17,61.21-173.42,56.45-45.26,120.8-53.2,186.31-21.91,63.58,30.38,96.87,82.9,99.51,154.13,1.1,29.78-3.35,58.72-18.69,84C605.95,552.36,554,635.06,500.12,722.12Z" transform="translate(-324.58 -211.87)"/><path class="cls-2" d="M580.17,347.23a3.93,3.93,0,1,1,3.93-3.93A3.91,3.91,0,0,1,580.17,347.23Z" transform="translate(-324.58 -211.87)"/><path class="cls-3" d="M397.44,468.69H602.56V321.18H545.81a4,4,0,0,1-3.75-2.73L535.57,302H464.43l-6.57,16.67a4,4,0,0,1-3.66,2.5H397.44Zm209.05,7.91h-213a4,4,0,0,1-4-4V317.25a4,4,0,0,1,4-4h58L458,296.82a4,4,0,0,1,3.75-2.73h76.51a4.06,4.06,0,0,1,3.66,2.55l6.57,16.62h58a4,4,0,0,1,4,4V472.63A4,4,0,0,1,606.49,476.6Z" transform="translate(-324.58 -211.87)"/><path class="cls-3" d="M500,346.38a48.52,48.52,0,1,1-34.37,14.21A48.43,48.43,0,0,1,500,346.38Zm28.78,19.8A40.62,40.62,0,1,0,540.71,395,40.6,40.6,0,0,0,528.78,366.18Z" transform="translate(-324.58 -211.87)"/></svg>