<svg id="Layer_1" data-name="Layer 1" xmlns="http://www.w3.org/2000/svg" viewBox="0 0 191.65 191.65"><defs><style>.cls-1{fill:#fefefe;}.cls-2{fill:#b62025;}.cls-3{fill:#fefdfd;}.cls-4{fill:#fbf6f6;}</style></defs><title>Harvey_Hazard</title><path class="cls-1" d="M481.73,567.3c-30.35,0-60.7-.08-91.05.1-3.89,0-4.78-.88-4.77-4.77q.21-91.05,0-182.11c0-3.89.88-4.78,4.77-4.77q91.05.21,182.11,0c3.89,0,4.78.88,4.77,4.77q-.21,91.05,0,182.11c0,3.89-.88,4.8-4.77,4.77C542.43,567.22,512.08,567.3,481.73,567.3Z" transform="translate(-385.91 -375.75)"/><path class="cls-2" d="M480.93,531.76c-20.47,0-40.94,0-61.41,0-9.54,0-11.75-3.65-7-12q31.07-54.16,62.4-108.18c3.93-6.78,8.81-6.73,12.79.11Q519.29,466,550.62,520.49c4.16,7.23,1.74,11.2-6.72,11.24C522.91,531.82,501.92,531.76,480.93,531.76Z" transform="translate(-385.91 -375.75)"/><path class="cls-3" d="M490.31,458.07c-1.53,11.2-3.19,23.23-4.78,35.26-.33,2.53-1.18,4.78-3.92,5-3.53.32-4-2.57-4.38-5.18-1.79-12.52-3.7-25-5.23-37.57a9.27,9.27,0,0,1,9-10.46C487.42,445,490.85,449.39,490.31,458.07Z" transform="translate(-385.91 -375.75)"/><path class="cls-4" d="M488.43,508.65c-.51,4.08-2.58,7-6.8,7.17s-6.86-2.21-7.05-6.55,2.31-6.92,6.47-7.16S487.56,504.65,488.43,508.65Z" transform="translate(-385.91 -375.75)"/></svg>